<svg xmlns="http://www.w3.org/2000/svg" fill="none" viewBox="0 0 168 28" height="28" width="168">
<circle fill="#1DB6EB" r="14" cy="14" cx="14"></circle>
<path fill="white" d="M25.1373 14.0576C25.1373 16.8661 22.8606 19.1428 20.0521 19.1428C17.2437 19.1428 3.09375 14.0576 3.09375 14.0576C3.09375 14.0576 17.2437 8.97241 20.0521 8.97241C22.8606 8.97241 25.1373 11.2491 25.1373 14.0576Z"></path>
<circle fill="#111111" r="3.79886" cy="14.0574" cx="19.9024"></circle>
<path fill="white" d="M37.5889 18.3206H42.2889V19.4306H39.0489V21.1206H41.3889V22.2206H39.0489V24.2706H42.3989V25.3806H37.5889V18.3206Z"></path>
<path fill="white" d="M43.2901 20.3606H44.5001L44.6101 21.1706C44.7501 20.9106 44.9601 20.6872 45.2401 20.5006C45.5201 20.3072 45.8468 20.2106 46.2201 20.2106C46.7668 20.2106 47.1701 20.3839 47.4301 20.7306C47.6968 21.0706 47.8301 21.5739 47.8301 22.2406V25.3806H46.4701V22.5706C46.4701 22.1506 46.4001 21.8506 46.2601 21.6706C46.1201 21.4906 45.9135 21.4006 45.6401 21.4006C45.3535 21.4006 45.1168 21.5172 44.9301 21.7506C44.7435 21.9839 44.6501 22.3672 44.6501 22.9006V25.3806H43.2901V20.3606Z"></path>
<path fill="white" d="M51.5417 21.2406H50.7217V20.3606H50.8817C51.1083 20.3606 51.2883 20.3239 51.4217 20.2506C51.5617 20.1772 51.6717 20.0772 51.7517 19.9506C51.8317 19.8239 51.8883 19.6739 51.9217 19.5006C51.9617 19.3206 52.0017 19.1272 52.0417 18.9206H52.8917V20.3606H53.9517V21.2406H52.8917V23.8706C52.8917 24.0706 52.925 24.2239 52.9917 24.3306C53.065 24.4372 53.2083 24.4906 53.4217 24.4906C53.4883 24.4906 53.5617 24.4839 53.6417 24.4706C53.7217 24.4572 53.8083 24.4306 53.9017 24.3906L54.0017 25.3506C53.835 25.4239 53.665 25.4739 53.4917 25.5006C53.325 25.5272 53.155 25.5406 52.9817 25.5406C52.695 25.5406 52.4583 25.5039 52.2717 25.4306C52.0917 25.3572 51.945 25.2539 51.8317 25.1206C51.725 24.9872 51.6483 24.8306 51.6017 24.6506C51.5617 24.4639 51.5417 24.2639 51.5417 24.0506V21.2406Z"></path>
<path fill="white" d="M53.7961 26.1206C53.8628 26.1472 53.9495 26.1672 54.0561 26.1806C54.1628 26.1939 54.2528 26.2006 54.3261 26.2006C54.4928 26.2006 54.6128 26.1539 54.6861 26.0606C54.7661 25.9739 54.8061 25.8239 54.8061 25.6106V20.3606H56.1661V25.7006C56.1661 26.2006 56.0495 26.5772 55.8161 26.8306C55.5895 27.0906 55.1928 27.2206 54.6261 27.2206C54.4528 27.2206 54.2861 27.2072 54.1261 27.1806C53.9661 27.1539 53.8228 27.1139 53.6961 27.0606L53.7961 26.1206ZM54.8061 18.3806H56.1661V19.4906H54.8061V18.3806Z"></path>
<path fill="white" d="M60.305 25.3806C60.265 25.2872 60.2316 25.1772 60.205 25.0506C60.185 24.9172 60.1683 24.7906 60.155 24.6706C60.0483 24.9172 59.8716 25.1239 59.625 25.2906C59.385 25.4572 59.0716 25.5406 58.685 25.5406C58.165 25.5406 57.7616 25.3906 57.475 25.0906C57.195 24.7906 57.055 24.4072 57.055 23.9406C57.055 23.6806 57.1016 23.4606 57.195 23.2806C57.2883 23.0939 57.4183 22.9372 57.585 22.8106C57.7516 22.6839 57.9516 22.5839 58.185 22.5106C58.4183 22.4306 58.6783 22.3706 58.965 22.3306L60.075 22.1606V21.9706C60.075 21.6772 60.0016 21.4839 59.855 21.3906C59.715 21.2972 59.5316 21.2506 59.305 21.2506C58.965 21.2506 58.6783 21.3139 58.445 21.4406C58.2183 21.5672 58.0183 21.7172 57.845 21.8906L57.195 20.9906C57.4016 20.7906 57.695 20.6106 58.075 20.4506C58.455 20.2906 58.9216 20.2106 59.475 20.2106C60.175 20.2106 60.6783 20.3639 60.985 20.6706C61.2916 20.9772 61.445 21.4439 61.445 22.0706V23.9506C61.445 24.1439 61.445 24.3072 61.445 24.4406C61.4516 24.5739 61.4616 24.6939 61.475 24.8006C61.4883 24.9006 61.5083 24.9972 61.535 25.0906C61.5616 25.1839 61.595 25.2806 61.635 25.3806H60.305ZM60.075 23.0206L59.205 23.1806C58.905 23.2339 58.6883 23.3172 58.555 23.4306C58.4216 23.5439 58.355 23.6972 58.355 23.8906C58.355 24.0839 58.415 24.2472 58.535 24.3806C58.655 24.5072 58.8216 24.5706 59.035 24.5706C59.3216 24.5706 59.565 24.4639 59.765 24.2506C59.9716 24.0306 60.075 23.7306 60.075 23.3506V23.0206ZM57.665 18.3806H58.985V19.4906H57.665V18.3806ZM59.775 18.3806H61.105V19.4906H59.775V18.3806Z"></path>
<path fill="white" d="M62.5675 20.3606H63.7775L63.8875 21.1706C64.0275 20.9106 64.2375 20.6872 64.5175 20.5006C64.7975 20.3072 65.1241 20.2106 65.4975 20.2106C66.0441 20.2106 66.4475 20.3839 66.7075 20.7306C66.9741 21.0706 67.1075 21.5739 67.1075 22.2406V25.3806H65.7475V22.5706C65.7475 22.1506 65.6775 21.8506 65.5375 21.6706C65.3975 21.4906 65.1908 21.4006 64.9175 21.4006C64.6308 21.4006 64.3941 21.5172 64.2075 21.7506C64.0208 21.9839 63.9275 22.3672 63.9275 22.9006V25.3806H62.5675V20.3606Z"></path>
<path fill="white" d="M68.4929 23.8706C68.5729 23.9572 68.6663 24.0406 68.7729 24.1206C68.8863 24.2006 69.0063 24.2739 69.1329 24.3406C69.2663 24.4006 69.4063 24.4506 69.5529 24.4906C69.6996 24.5239 69.8496 24.5406 70.0029 24.5406C70.1829 24.5406 70.3496 24.5039 70.5029 24.4306C70.6629 24.3506 70.7429 24.2239 70.7429 24.0506C70.7429 23.8972 70.6763 23.7772 70.5429 23.6906C70.4096 23.6039 70.2429 23.5272 70.0429 23.4606C69.8429 23.3939 69.6229 23.3272 69.3829 23.2606C69.1496 23.1939 68.9329 23.1039 68.7329 22.9906C68.5329 22.8706 68.3663 22.7172 68.2329 22.5306C68.0996 22.3439 68.0329 22.0939 68.0329 21.7806C68.0329 21.5072 68.0896 21.2739 68.2029 21.0806C68.3163 20.8806 68.4663 20.7172 68.6529 20.5906C68.8396 20.4572 69.0529 20.3606 69.2929 20.3006C69.5329 20.2406 69.7829 20.2106 70.0429 20.2106C70.4629 20.2106 70.8363 20.2639 71.1629 20.3706C71.4896 20.4772 71.7796 20.6272 72.0329 20.8206L71.4029 21.7206C71.3363 21.6539 71.2496 21.5906 71.1429 21.5306C71.0363 21.4706 70.9196 21.4172 70.7929 21.3706C70.6729 21.3172 70.5429 21.2772 70.4029 21.2506C70.2629 21.2172 70.1263 21.2006 69.9929 21.2006C69.8396 21.2006 69.7029 21.2339 69.5829 21.3006C69.4696 21.3672 69.4129 21.4772 69.4129 21.6306C69.4129 21.7706 69.4796 21.8839 69.6129 21.9706C69.7463 22.0506 69.9129 22.1272 70.1129 22.2006C70.3129 22.2672 70.5296 22.3372 70.7629 22.4106C70.9963 22.4839 71.2129 22.5806 71.4129 22.7006C71.6129 22.8139 71.7796 22.9672 71.9129 23.1606C72.0463 23.3472 72.1129 23.5872 72.1129 23.8806C72.1129 24.1606 72.0529 24.4039 71.9329 24.6106C71.8129 24.8172 71.6563 24.9906 71.4629 25.1306C71.2696 25.2706 71.0496 25.3739 70.8029 25.4406C70.5563 25.5072 70.3096 25.5406 70.0629 25.5406C69.1496 25.5406 68.4129 25.2906 67.8529 24.7906L68.4929 23.8706Z"></path>
<path fill="white" d="M73.2604 21.2406H72.4404V20.3606H72.6004C72.8271 20.3606 73.0071 20.3239 73.1404 20.2506C73.2804 20.1772 73.3904 20.0772 73.4704 19.9506C73.5504 19.8239 73.6071 19.6739 73.6404 19.5006C73.6804 19.3206 73.7204 19.1272 73.7604 18.9206H74.6104V20.3606H75.6704V21.2406H74.6104V23.8706C74.6104 24.0706 74.6438 24.2239 74.7104 24.3306C74.7838 24.4372 74.9271 24.4906 75.1404 24.4906C75.2071 24.4906 75.2804 24.4839 75.3604 24.4706C75.4404 24.4572 75.5271 24.4306 75.6204 24.3906L75.7204 25.3506C75.5538 25.4239 75.3838 25.4739 75.2104 25.5006C75.0438 25.5272 74.8738 25.5406 74.7004 25.5406C74.4138 25.5406 74.1771 25.5039 73.9904 25.4306C73.8104 25.3572 73.6638 25.2539 73.5504 25.1206C73.4438 24.9872 73.3671 24.8306 73.3204 24.6506C73.2804 24.4639 73.2604 24.2639 73.2604 24.0506V21.2406Z"></path>
<path fill="white" d="M79.091 21.2406H78.251V20.3606H79.041C78.9876 20.1872 78.9476 20.0172 78.921 19.8506C78.8943 19.6839 78.881 19.5339 78.881 19.4006C78.881 19.2339 78.901 19.0739 78.941 18.9206C78.9876 18.7606 79.0676 18.6239 79.181 18.5106C79.2943 18.3972 79.4476 18.3072 79.641 18.2406C79.841 18.1672 80.091 18.1306 80.391 18.1306C80.6376 18.1306 80.851 18.1472 81.031 18.1806C81.2176 18.2072 81.391 18.2506 81.551 18.3106L81.341 19.3306C81.2676 19.2906 81.1676 19.2572 81.041 19.2306C80.9143 19.2039 80.8043 19.1906 80.711 19.1906C80.4043 19.1906 80.251 19.3372 80.251 19.6306C80.251 19.7639 80.2676 19.9006 80.301 20.0406C80.341 20.1739 80.3776 20.2806 80.411 20.3606H81.391V21.2406H80.461V25.3806H79.091V21.2406Z"></path>
<path fill="white" d="M82.0596 20.3606H83.2696L83.3696 21.3506C83.523 21.0239 83.743 20.7539 84.0296 20.5406C84.3163 20.3206 84.683 20.2106 85.1297 20.2106V21.6006C85.0763 21.5872 85.013 21.5772 84.9396 21.5706C84.8663 21.5639 84.783 21.5606 84.6896 21.5606C84.543 21.5606 84.393 21.5806 84.2396 21.6206C84.093 21.6539 83.9563 21.7239 83.8296 21.8306C83.7096 21.9372 83.6096 22.0872 83.5296 22.2806C83.4563 22.4672 83.4196 22.7106 83.4196 23.0106V25.3806H82.0596V20.3606Z"></path>
<path fill="white" d="M88.7425 25.3806C88.7025 25.2872 88.6691 25.1772 88.6425 25.0506C88.6225 24.9172 88.6058 24.7906 88.5925 24.6706C88.4858 24.9172 88.3091 25.1239 88.0625 25.2906C87.8225 25.4572 87.5091 25.5406 87.1225 25.5406C86.6025 25.5406 86.1991 25.3906 85.9125 25.0906C85.6325 24.7906 85.4925 24.4072 85.4925 23.9406C85.4925 23.6806 85.5391 23.4606 85.6325 23.2806C85.7258 23.0939 85.8558 22.9372 86.0225 22.8106C86.1891 22.6839 86.3891 22.5839 86.6225 22.5106C86.8558 22.4306 87.1158 22.3706 87.4025 22.3306L88.5125 22.1606V21.9706C88.5125 21.6772 88.4391 21.4839 88.2925 21.3906C88.1525 21.2972 87.9691 21.2506 87.7425 21.2506C87.4025 21.2506 87.1158 21.3139 86.8825 21.4406C86.6558 21.5672 86.4558 21.7172 86.2825 21.8906L85.6325 20.9906C85.8391 20.7906 86.1325 20.6106 86.5125 20.4506C86.8925 20.2906 87.3591 20.2106 87.9125 20.2106C88.6125 20.2106 89.1158 20.3639 89.4225 20.6706C89.7291 20.9772 89.8825 21.4439 89.8825 22.0706V23.9506C89.8825 24.1439 89.8825 24.3072 89.8825 24.4406C89.8891 24.5739 89.8991 24.6939 89.9125 24.8006C89.9258 24.9006 89.9458 24.9972 89.9725 25.0906C89.9991 25.1839 90.0325 25.2806 90.0725 25.3806H88.7425ZM88.5125 23.0206L87.6425 23.1806C87.3425 23.2339 87.1258 23.3172 86.9925 23.4306C86.8591 23.5439 86.7925 23.6972 86.7925 23.8906C86.7925 24.0839 86.8525 24.2472 86.9725 24.3806C87.0925 24.5072 87.2591 24.5706 87.4725 24.5706C87.7591 24.5706 88.0025 24.4639 88.2025 24.2506C88.4091 24.0306 88.5125 23.7306 88.5125 23.3506V23.0206ZM87.8225 19.7506C87.6625 19.7506 87.5125 19.7239 87.3725 19.6706C87.2391 19.6106 87.1225 19.5339 87.0225 19.4406C86.9225 19.3406 86.8425 19.2239 86.7825 19.0906C86.7291 18.9572 86.7025 18.8139 86.7025 18.6606C86.7025 18.5072 86.7291 18.3672 86.7825 18.2406C86.8425 18.1072 86.9225 17.9939 87.0225 17.9006C87.1225 17.8006 87.2391 17.7239 87.3725 17.6706C87.5125 17.6106 87.6625 17.5806 87.8225 17.5806C88.1491 17.5806 88.4158 17.6839 88.6225 17.8906C88.8358 18.0972 88.9425 18.3539 88.9425 18.6606C88.9425 18.8139 88.9125 18.9572 88.8525 19.0906C88.7991 19.2239 88.7225 19.3406 88.6225 19.4406C88.5225 19.5339 88.4025 19.6106 88.2625 19.6706C88.1291 19.7239 87.9825 19.7506 87.8225 19.7506ZM87.8225 19.1406C87.9758 19.1406 88.0925 19.0939 88.1725 19.0006C88.2591 18.9072 88.3025 18.7939 88.3025 18.6606C88.3025 18.5272 88.2591 18.4139 88.1725 18.3206C88.0925 18.2272 87.9758 18.1806 87.8225 18.1806C87.6691 18.1806 87.5525 18.2272 87.4725 18.3206C87.3925 18.4139 87.3525 18.5272 87.3525 18.6606C87.3525 18.7939 87.3925 18.9072 87.4725 19.0006C87.5591 19.0939 87.6758 19.1406 87.8225 19.1406Z"></path>
<path fill="white" d="M91.005 20.3606H92.215L92.325 21.1706C92.465 20.9106 92.675 20.6872 92.955 20.5006C93.235 20.3072 93.5616 20.2106 93.935 20.2106C94.4816 20.2106 94.885 20.3839 95.145 20.7306C95.4116 21.0706 95.545 21.5739 95.545 22.2406V25.3806H94.185V22.5706C94.185 22.1506 94.115 21.8506 93.975 21.6706C93.835 21.4906 93.6283 21.4006 93.355 21.4006C93.0683 21.4006 92.8316 21.5172 92.645 21.7506C92.4583 21.9839 92.365 22.3672 92.365 22.9006V25.3806H91.005V20.3606Z"></path>
<path fill="white" d="M99.5465 23.4306C99.6199 23.5439 99.7165 23.6539 99.8365 23.7606C99.9632 23.8606 100.11 23.9539 100.277 24.0406C100.443 24.1272 100.627 24.1972 100.827 24.2506C101.027 24.2972 101.243 24.3206 101.477 24.3206C101.837 24.3206 102.127 24.2472 102.347 24.1006C102.573 23.9472 102.687 23.7406 102.687 23.4806C102.687 23.3206 102.643 23.1872 102.557 23.0806C102.477 22.9739 102.357 22.8806 102.197 22.8006C102.037 22.7206 101.843 22.6472 101.617 22.5806C101.397 22.5139 101.147 22.4439 100.867 22.3706C100.2 22.1972 99.6932 21.9506 99.3465 21.6306C99.0065 21.3106 98.8365 20.8806 98.8365 20.3406C98.8365 20.0406 98.8965 19.7572 99.0165 19.4906C99.1365 19.2239 99.3099 18.9939 99.5365 18.8006C99.7632 18.6072 100.04 18.4539 100.367 18.3406C100.7 18.2272 101.077 18.1706 101.497 18.1706C102.017 18.1706 102.51 18.2606 102.977 18.4406C103.443 18.6139 103.833 18.8806 104.147 19.2406L103.177 20.1506C102.983 19.9306 102.737 19.7472 102.437 19.6006C102.143 19.4539 101.81 19.3806 101.437 19.3806C101.057 19.3806 100.78 19.4539 100.607 19.6006C100.44 19.7406 100.357 19.9206 100.357 20.1406C100.357 20.3806 100.467 20.5739 100.687 20.7206C100.913 20.8672 101.263 21.0039 101.737 21.1306C102.197 21.2506 102.58 21.3806 102.887 21.5206C103.2 21.6606 103.453 21.8172 103.647 21.9906C103.84 22.1639 103.977 22.3572 104.057 22.5706C104.143 22.7839 104.187 23.0272 104.187 23.3006C104.187 23.6606 104.113 23.9806 103.967 24.2606C103.82 24.5406 103.62 24.7772 103.367 24.9706C103.12 25.1572 102.83 25.2972 102.497 25.3906C102.163 25.4906 101.81 25.5406 101.437 25.5406C100.723 25.5406 100.127 25.4339 99.6465 25.2206C99.1732 25.0072 98.8132 24.7406 98.5665 24.4206L99.5465 23.4306Z"></path>
<path fill="white" d="M105.67 23.4306C105.743 23.5439 105.84 23.6539 105.96 23.7606C106.086 23.8606 106.233 23.9539 106.4 24.0406C106.566 24.1272 106.75 24.1972 106.95 24.2506C107.15 24.2972 107.366 24.3206 107.6 24.3206C107.96 24.3206 108.25 24.2472 108.47 24.1006C108.696 23.9472 108.81 23.7406 108.81 23.4806C108.81 23.3206 108.766 23.1872 108.68 23.0806C108.6 22.9739 108.48 22.8806 108.32 22.8006C108.16 22.7206 107.966 22.6472 107.74 22.5806C107.52 22.5139 107.27 22.4439 106.99 22.3706C106.323 22.1972 105.816 21.9506 105.47 21.6306C105.13 21.3106 104.96 20.8806 104.96 20.3406C104.96 20.0406 105.02 19.7572 105.14 19.4906C105.26 19.2239 105.433 18.9939 105.66 18.8006C105.886 18.6072 106.163 18.4539 106.49 18.3406C106.823 18.2272 107.2 18.1706 107.62 18.1706C108.14 18.1706 108.633 18.2606 109.1 18.4406C109.566 18.6139 109.956 18.8806 110.27 19.2406L109.3 20.1506C109.106 19.9306 108.86 19.7472 108.56 19.6006C108.266 19.4539 107.933 19.3806 107.56 19.3806C107.18 19.3806 106.903 19.4539 106.73 19.6006C106.563 19.7406 106.48 19.9206 106.48 20.1406C106.48 20.3806 106.59 20.5739 106.81 20.7206C107.036 20.8672 107.386 21.0039 107.86 21.1306C108.32 21.2506 108.703 21.3806 109.01 21.5206C109.323 21.6606 109.576 21.8172 109.77 21.9906C109.963 22.1639 110.1 22.3572 110.18 22.5706C110.266 22.7839 110.31 23.0272 110.31 23.3006C110.31 23.6606 110.236 23.9806 110.09 24.2606C109.943 24.5406 109.743 24.7772 109.49 24.9706C109.243 25.1572 108.953 25.2972 108.62 25.3906C108.286 25.4906 107.933 25.5406 107.56 25.5406C106.846 25.5406 106.25 25.4339 105.77 25.2206C105.296 25.0072 104.936 24.7406 104.69 24.4206L105.67 23.4306Z"></path>
<path fill="white" d="M111.28 18.3206H115.99V19.4306H112.74V21.3206H115.08V22.4306H112.74V25.3806H111.28V18.3206Z"></path>
<path fill="white" d="M38.2559 10.5601C38.3519 10.6988 38.4906 10.8481 38.6719 11.0081C38.8533 11.1574 39.0719 11.2961 39.3279 11.4241C39.5839 11.5521 39.8666 11.6588 40.1759 11.7441C40.4959 11.8294 40.8319 11.8721 41.1839 11.8721C41.6746 11.8721 42.0586 11.7921 42.3359 11.6321C42.6133 11.4614 42.7519 11.2374 42.7519 10.9601C42.7519 10.7361 42.6879 10.5548 42.5599 10.4161C42.4426 10.2774 42.2613 10.1601 42.0159 10.0641C41.7706 9.95745 41.4666 9.86678 41.1039 9.79211C40.7519 9.70678 40.3466 9.60544 39.8879 9.48811C38.7679 9.21078 37.9626 8.78944 37.4719 8.22411C36.9813 7.65878 36.7359 6.96011 36.7359 6.12811C36.7359 5.64811 36.8319 5.18944 37.0239 4.75211C37.2159 4.30411 37.4986 3.91478 37.8719 3.58411C38.2559 3.24278 38.7253 2.97078 39.2799 2.76811C39.8453 2.56544 40.5013 2.46411 41.2479 2.46411C42.1119 2.46411 42.9386 2.61344 43.7279 2.91211C44.5279 3.20011 45.1946 3.65344 45.7279 4.27211L43.8079 6.06411C43.5093 5.72278 43.1306 5.43478 42.6719 5.20011C42.2133 4.96544 41.6853 4.84811 41.0879 4.84811C40.8106 4.84811 40.5813 4.87478 40.3999 4.92811C40.2293 4.98144 40.0906 5.05078 39.9839 5.13611C39.8879 5.21078 39.8186 5.30144 39.7759 5.40811C39.7439 5.51478 39.7279 5.61611 39.7279 5.71211C39.7279 5.97878 39.8613 6.21878 40.1279 6.43211C40.4053 6.64544 40.9066 6.84278 41.6319 7.02411C42.4533 7.23744 43.1253 7.46144 43.6479 7.69611C44.1813 7.93078 44.6026 8.19211 44.9119 8.48011C45.2213 8.76811 45.4346 9.08811 45.5519 9.44011C45.6693 9.79211 45.7279 10.1814 45.7279 10.6081C45.7279 11.2054 45.5999 11.7334 45.3439 12.1921C45.0986 12.6508 44.7626 13.0348 44.3359 13.3441C43.9199 13.6428 43.4293 13.8668 42.8639 14.0161C42.3093 14.1761 41.7226 14.2561 41.1039 14.2561C40.5066 14.2561 39.9573 14.2081 39.4559 14.1121C38.9546 14.0161 38.5013 13.8881 38.0959 13.7281C37.7013 13.5681 37.3546 13.3868 37.0559 13.1841C36.7679 12.9708 36.5279 12.7521 36.3359 12.5281L38.2559 10.5601Z"></path>
<path fill="white" d="M51.6788 14.0001C51.6148 13.8828 51.5615 13.7281 51.5188 13.5361C51.4761 13.3441 51.4441 13.1734 51.4228 13.0241C51.2735 13.3441 51.0175 13.6321 50.6548 13.8881C50.3028 14.1334 49.8175 14.2561 49.1988 14.2561C48.7615 14.2561 48.3775 14.1868 48.0468 14.0481C47.7161 13.9201 47.4335 13.7388 47.1988 13.5041C46.9748 13.2694 46.8041 12.9921 46.6868 12.6721C46.5695 12.3521 46.5108 12.0054 46.5108 11.6321C46.5108 11.2161 46.5801 10.8588 46.7188 10.5601C46.8681 10.2508 47.0761 9.98944 47.3428 9.77611C47.6201 9.56278 47.9508 9.39211 48.3348 9.26411C48.7188 9.13611 49.1508 9.03478 49.6308 8.96011L51.2628 8.70411V8.52811C51.2628 8.18678 51.1721 7.95744 50.9908 7.84011C50.8201 7.72278 50.5748 7.66411 50.2548 7.66411C49.7535 7.66411 49.3215 7.75478 48.9588 7.93611C48.6068 8.11744 48.2921 8.33078 48.0148 8.57611L46.7508 6.80011C46.9215 6.66144 47.1295 6.52278 47.3748 6.38411C47.6308 6.23478 47.9188 6.10678 48.2388 6.00011C48.5588 5.88278 48.9161 5.79211 49.3108 5.72811C49.7055 5.65344 50.1375 5.61611 50.6068 5.61611C51.8121 5.61611 52.6708 5.87211 53.1828 6.38411C53.7055 6.89611 53.9668 7.67478 53.9668 8.72011V11.6161C53.9668 11.9574 53.9668 12.2401 53.9668 12.4641C53.9775 12.6881 53.9935 12.8908 54.0148 13.0721C54.0468 13.2428 54.0841 13.4028 54.1268 13.5521C54.1695 13.6908 54.2281 13.8401 54.3028 14.0001H51.6788ZM51.2628 10.4001L50.1588 10.6081C49.7855 10.6828 49.5135 10.7948 49.3428 10.9441C49.1721 11.0828 49.0868 11.2801 49.0868 11.5361C49.0868 11.7708 49.1561 11.9681 49.2948 12.1281C49.4441 12.2774 49.6521 12.3521 49.9188 12.3521C50.2921 12.3521 50.6068 12.2081 50.8628 11.9201C51.1295 11.6321 51.2628 11.2161 51.2628 10.6721V10.4001ZM47.3268 2.62411H49.9348V4.76811H47.3268V2.62411ZM50.8628 2.62411H53.4868V4.76811H50.8628V2.62411Z"></path>
<path fill="white" d="M55.5339 2.70411H58.2219V8.84811L60.9259 5.85611H64.2059L61.0059 8.94411L64.1899 14.0001H61.1339L59.2939 10.5761L58.2219 11.6001V14.0001H55.5339V2.70411Z"></path>
<path fill="white" d="M66.9023 10.5601C66.9983 11.1894 67.1956 11.6321 67.4943 11.8881C67.8036 12.1334 68.161 12.2561 68.5663 12.2561C68.9076 12.2561 69.201 12.1814 69.4463 12.0321C69.7023 11.8828 69.921 11.6534 70.1023 11.3441L72.0863 12.4641C71.681 13.0828 71.1583 13.5361 70.5183 13.8241C69.8783 14.1121 69.1796 14.2561 68.4223 14.2561C67.729 14.2561 67.1156 14.1494 66.5823 13.9361C66.049 13.7121 65.601 13.4081 65.2383 13.0241C64.8756 12.6401 64.5983 12.1868 64.4063 11.6641C64.225 11.1308 64.1343 10.5601 64.1343 9.95211C64.1343 9.33344 64.2303 8.75744 64.4223 8.22411C64.6143 7.69078 64.8863 7.23211 65.2383 6.84811C65.601 6.46411 66.0383 6.16544 66.5503 5.95211C67.0623 5.72811 67.6436 5.61611 68.2943 5.61611C68.9236 5.61611 69.4836 5.72278 69.9743 5.93611C70.465 6.14944 70.8756 6.45344 71.2063 6.84811C71.5476 7.23211 71.8036 7.70144 71.9743 8.25611C72.1556 8.80011 72.2463 9.41344 72.2463 10.0961C72.2463 10.2454 72.241 10.3574 72.2303 10.4321C72.2303 10.4961 72.2303 10.5388 72.2303 10.5601H66.9023ZM68.2303 7.58411C67.4623 7.58411 67.0143 8.07478 66.8863 9.05611H69.5103C69.5103 8.65078 69.409 8.30411 69.2063 8.01611C69.0036 7.72811 68.6783 7.58411 68.2303 7.58411Z"></path>
<path fill="white" d="M73.4402 5.85611H75.8562L76.0482 7.36011C76.2935 6.86944 76.6349 6.45878 77.0722 6.12811C77.5202 5.78678 78.1175 5.61611 78.8642 5.61611V8.35211C78.6722 8.29878 78.3895 8.27211 78.0162 8.27211C77.8029 8.27211 77.5842 8.29344 77.3602 8.33611C77.1469 8.36811 76.9442 8.45344 76.7522 8.59211C76.5709 8.73078 76.4215 8.94411 76.3042 9.23211C76.1869 9.52011 76.1282 9.90944 76.1282 10.4001V14.0001H73.4402V5.85611Z"></path>
<path fill="white" d="M79.8152 2.70411H82.5032V6.92811C82.7059 6.56544 83.0099 6.25611 83.4152 6.00011C83.8205 5.74411 84.3432 5.61611 84.9832 5.61611C85.9112 5.61611 86.5885 5.91478 87.0152 6.51211C87.4525 7.09878 87.6712 7.95744 87.6712 9.08811V14.0001H84.9832V9.58411C84.9832 9.07211 84.8925 8.67744 84.7112 8.40011C84.5299 8.11211 84.2312 7.96811 83.8152 7.96811C83.4312 7.96811 83.1165 8.12811 82.8712 8.44811C82.6259 8.75744 82.5032 9.28544 82.5032 10.0321V14.0001H79.8152V2.70411Z"></path>
<path fill="white" d="M91.5586 10.5601C91.6546 11.1894 91.8519 11.6321 92.1506 11.8881C92.4599 12.1334 92.8172 12.2561 93.2226 12.2561C93.5639 12.2561 93.8572 12.1814 94.1026 12.0321C94.3586 11.8828 94.5772 11.6534 94.7586 11.3441L96.7426 12.4641C96.3372 13.0828 95.8146 13.5361 95.1746 13.8241C94.5346 14.1121 93.8359 14.2561 93.0786 14.2561C92.3852 14.2561 91.7719 14.1494 91.2386 13.9361C90.7052 13.7121 90.2572 13.4081 89.8946 13.0241C89.5319 12.6401 89.2546 12.1868 89.0626 11.6641C88.8812 11.1308 88.7906 10.5601 88.7906 9.95211C88.7906 9.33344 88.8866 8.75744 89.0786 8.22411C89.2706 7.69078 89.5426 7.23211 89.8946 6.84811C90.2572 6.46411 90.6946 6.16544 91.2066 5.95211C91.7186 5.72811 92.2999 5.61611 92.9506 5.61611C93.5799 5.61611 94.1399 5.72278 94.6306 5.93611C95.1212 6.14944 95.5319 6.45344 95.8626 6.84811C96.2039 7.23211 96.4599 7.70144 96.6306 8.25611C96.8119 8.80011 96.9026 9.41344 96.9026 10.0961C96.9026 10.2454 96.8972 10.3574 96.8866 10.4321C96.8866 10.4961 96.8866 10.5388 96.8866 10.5601H91.5586ZM92.8866 7.58411C92.1186 7.58411 91.6706 8.07478 91.5426 9.05611H94.1666C94.1666 8.65078 94.0652 8.30411 93.8626 8.01611C93.6599 7.72811 93.3346 7.58411 92.8866 7.58411Z"></path>
<path fill="white" d="M98.6111 7.58411H97.3151V5.85611H97.5391C97.9551 5.85611 98.2804 5.78678 98.5151 5.64811C98.7604 5.50944 98.9471 5.32811 99.0751 5.10411C99.2137 4.86944 99.3151 4.60811 99.3791 4.32011C99.4431 4.03211 99.5124 3.74411 99.5871 3.45611H101.283V5.85611H102.963V7.58411H101.283V11.3601C101.283 11.6054 101.331 11.8081 101.427 11.9681C101.523 12.1281 101.731 12.2081 102.051 12.2081C102.136 12.2081 102.243 12.2028 102.371 12.1921C102.499 12.1708 102.643 12.1228 102.803 12.0481L102.979 13.9361C102.68 14.0534 102.382 14.1334 102.083 14.1761C101.784 14.2294 101.48 14.2561 101.171 14.2561C100.67 14.2561 100.254 14.1921 99.9231 14.0641C99.5924 13.9361 99.3311 13.7601 99.1391 13.5361C98.9471 13.3121 98.8084 13.0454 98.7231 12.7361C98.6484 12.4161 98.6111 12.0694 98.6111 11.6961V7.58411Z"></path>
<path fill="white" d="M104.661 11.2961C104.789 11.4134 104.938 11.5361 105.109 11.6641C105.29 11.7814 105.487 11.8881 105.701 11.9841C105.925 12.0801 106.154 12.1601 106.389 12.2241C106.623 12.2774 106.858 12.3041 107.093 12.3041C107.285 12.3041 107.477 12.2721 107.669 12.2081C107.871 12.1441 107.973 12.0108 107.973 11.8081C107.973 11.6161 107.866 11.4668 107.653 11.3601C107.439 11.2428 107.173 11.1414 106.853 11.0561C106.543 10.9601 106.202 10.8588 105.829 10.7521C105.455 10.6454 105.109 10.4961 104.789 10.3041C104.479 10.1121 104.218 9.86144 104.005 9.55211C103.791 9.23211 103.685 8.81611 103.685 8.30411C103.685 7.84544 103.781 7.44544 103.973 7.10411C104.165 6.76278 104.421 6.48544 104.741 6.27211C105.061 6.04811 105.429 5.88278 105.845 5.77611C106.261 5.66944 106.693 5.61611 107.141 5.61611C107.877 5.61611 108.522 5.70144 109.077 5.87211C109.631 6.04278 110.133 6.28278 110.581 6.59211L109.349 8.38411C109.242 8.28811 109.103 8.19211 108.933 8.09611C108.762 8.00011 108.57 7.91478 108.357 7.84011C108.154 7.75478 107.935 7.69078 107.701 7.64811C107.477 7.59478 107.258 7.56811 107.045 7.56811C106.863 7.56811 106.714 7.60011 106.597 7.66411C106.479 7.71744 106.421 7.82944 106.421 8.00011C106.421 8.18144 106.527 8.32544 106.741 8.43211C106.954 8.53878 107.215 8.64544 107.525 8.75211C107.845 8.84811 108.186 8.95478 108.549 9.07211C108.922 9.18944 109.263 9.34944 109.573 9.55211C109.893 9.74411 110.159 9.99478 110.373 10.3041C110.586 10.6134 110.693 11.0028 110.693 11.4721C110.693 11.9414 110.586 12.3521 110.373 12.7041C110.17 13.0561 109.898 13.3494 109.557 13.5841C109.226 13.8081 108.853 13.9734 108.437 14.0801C108.021 14.1974 107.61 14.2561 107.205 14.2561C105.669 14.2561 104.41 13.8721 103.429 13.1041L104.661 11.2961Z"></path>
<path fill="white" d="M111.784 2.70411H114.472V8.84811L117.176 5.85611H120.456L117.256 8.94411L120.44 14.0001H117.384L115.544 10.5761L114.472 11.6001V14.0001H111.784V2.70411Z"></path>
<path fill="white" d="M124.512 14.2561C123.819 14.2561 123.211 14.1494 122.688 13.9361C122.176 13.7121 121.75 13.4081 121.408 13.0241C121.067 12.6401 120.811 12.1868 120.64 11.6641C120.47 11.1414 120.384 10.5708 120.384 9.95211C120.384 9.33344 120.475 8.76278 120.656 8.24011C120.838 7.70678 121.099 7.24811 121.44 6.86411C121.792 6.46944 122.224 6.16544 122.736 5.95211C123.248 5.72811 123.84 5.61611 124.512 5.61611C125.184 5.61611 125.776 5.72811 126.288 5.95211C126.811 6.16544 127.243 6.46411 127.584 6.84811C127.926 7.23211 128.182 7.69078 128.352 8.22411C128.534 8.75744 128.624 9.33344 128.624 9.95211C128.624 10.5708 128.534 11.1414 128.352 11.6641C128.182 12.1868 127.926 12.6401 127.584 13.0241C127.243 13.4081 126.811 13.7121 126.288 13.9361C125.776 14.1494 125.184 14.2561 124.512 14.2561ZM124.56 12.2081C125.008 12.2081 125.328 12.0054 125.52 11.6001C125.723 11.1948 125.824 10.6454 125.824 9.95211C125.824 9.25878 125.712 8.70411 125.488 8.28811C125.275 7.87211 124.944 7.66411 124.496 7.66411C124.048 7.66411 123.718 7.87211 123.504 8.28811C123.291 8.70411 123.184 9.25878 123.184 9.95211C123.184 10.6454 123.291 11.1948 123.504 11.6001C123.728 12.0054 124.08 12.2081 124.56 12.2081Z"></path>
<path fill="white" d="M129.815 2.70411H132.503V14.0001H129.815V2.70411Z"></path>
<path fill="white" d="M134.065 2.70411H136.753V14.0001H134.065V2.70411Z"></path>
<path fill="white" d="M140.699 10.5601C140.795 11.1894 140.993 11.6321 141.291 11.8881C141.601 12.1334 141.958 12.2561 142.363 12.2561C142.705 12.2561 142.998 12.1814 143.243 12.0321C143.499 11.8828 143.718 11.6534 143.899 11.3441L145.883 12.4641C145.478 13.0828 144.955 13.5361 144.315 13.8241C143.675 14.1121 142.977 14.2561 142.219 14.2561C141.526 14.2561 140.913 14.1494 140.379 13.9361C139.846 13.7121 139.398 13.4081 139.035 13.0241C138.673 12.6401 138.395 12.1868 138.203 11.6641C138.022 11.1308 137.931 10.5601 137.931 9.95211C137.931 9.33344 138.027 8.75744 138.219 8.22411C138.411 7.69078 138.683 7.23211 139.035 6.84811C139.398 6.46411 139.835 6.16544 140.347 5.95211C140.859 5.72811 141.441 5.61611 142.091 5.61611C142.721 5.61611 143.281 5.72278 143.771 5.93611C144.262 6.14944 144.673 6.45344 145.003 6.84811C145.345 7.23211 145.601 7.70144 145.771 8.25611C145.953 8.80011 146.043 9.41344 146.043 10.0961C146.043 10.2454 146.038 10.3574 146.027 10.4321C146.027 10.4961 146.027 10.5388 146.027 10.5601H140.699ZM142.027 7.58411C141.259 7.58411 140.811 8.07478 140.683 9.05611H143.307C143.307 8.65078 143.206 8.30411 143.003 8.01611C142.801 7.72811 142.475 7.58411 142.027 7.58411Z"></path>
<path fill="white" d="M147.237 5.85611H149.653L149.861 6.99211C150.106 6.60811 150.453 6.28278 150.901 6.01611C151.349 5.74944 151.85 5.61611 152.405 5.61611C154.197 5.61611 155.093 6.75744 155.093 9.04011V14.0001H152.405V9.71211C152.405 9.07211 152.309 8.62411 152.117 8.36811C151.925 8.10144 151.632 7.96811 151.237 7.96811C151.045 7.96811 150.869 8.00545 150.709 8.08011C150.549 8.14411 150.41 8.26144 150.293 8.43211C150.176 8.60278 150.085 8.82678 150.021 9.10411C149.957 9.38144 149.925 9.73344 149.925 10.1601V14.0001H147.237V5.85611Z"></path>
</svg>
